<?xml version="1.0" encoding="UTF-8" standalone="no"?>
<svg
   width="64"
   height="64"
   preserveAspectRatio="xMidYMid"
   version="1.1"
   id="svg4"
   sodipodi:docname="mono-project-icon.svg"
   inkscape:version="1.1.2 (0a00cf5339, 2022-02-04)"
   xmlns:inkscape="http://www.inkscape.org/namespaces/inkscape"
   xmlns:sodipodi="http://sodipodi.sourceforge.net/DTD/sodipodi-0.dtd"
   xmlns="http://www.w3.org/2000/svg"
   xmlns:svg="http://www.w3.org/2000/svg">
  <defs
     id="defs8" />
  <sodipodi:namedview
     id="namedview6"
     pagecolor="#505050"
     bordercolor="#eeeeee"
     borderopacity="1"
     inkscape:pageshadow="0"
     inkscape:pageopacity="0"
     inkscape:pagecheckerboard="0"
     showgrid="false"
     inkscape:zoom="11.234375"
     inkscape:cx="32"
     inkscape:cy="32"
     inkscape:window-width="1920"
     inkscape:window-height="1136"
     inkscape:window-x="0"
     inkscape:window-y="0"
     inkscape:window-maximized="1"
     inkscape:current-layer="svg4" />
  <path
     d="M59.992 0H4.008A4.01 4.01 0 0 0 0 4.008V25.15l12.598-3.52 8.385 3.477-6.862-3.477s-4.827-2.638-5.676-6.097S11.9 8.13 11.9 8.13l15.567 1.99-8.468-1.594s2.97-1.978 9.65-1.763c7.33.236 17.66 2.09 19.364 3.793s4.882 13.22 3.055 15.046c-.858.858-11.813-1.83-11.813-1.83l9.14 2.898s5.07 11.633 1.862 21.638c0 0-6.978-3.787-12.502-11.264 4.578 9.58 12.073 12.652 12.073 12.652s-2.818 7.585-4.45 9.217L18.8 47.482 5.292 64h54.7A4.01 4.01 0 0 0 64 59.991V4.008A4.01 4.01 0 0 0 59.992 0"
     fill="#1a1918"
     id="path2"
     style="fill:#f1f1f1;fill-opacity:1" />
</svg>
