<?xml version="1.0" encoding="UTF-8" standalone="no"?>
<!-- Created with Inkscape (http://www.inkscape.org/) -->

<svg
   width="297mm"
   height="210mm"
   viewBox="0 0 297 210"
   version="1.1"
   id="svg5"
   sodipodi:docname="what-happened-to-fun.svg"
   inkscape:version="1.1.2 (0a00cf5339, 2022-02-04)"
   xmlns:inkscape="http://www.inkscape.org/namespaces/inkscape"
   xmlns:sodipodi="http://sodipodi.sourceforge.net/DTD/sodipodi-0.dtd"
   xmlns="http://www.w3.org/2000/svg"
   xmlns:svg="http://www.w3.org/2000/svg">
  <sodipodi:namedview
     id="namedview7"
     pagecolor="#505050"
     bordercolor="#eeeeee"
     borderopacity="1"
     inkscape:pageshadow="0"
     inkscape:pageopacity="0"
     inkscape:pagecheckerboard="0"
     inkscape:document-units="mm"
     showgrid="false"
     inkscape:snap-global="false"
     inkscape:zoom="0.93855123"
     inkscape:cx="534.33418"
     inkscape:cy="402.21566"
     inkscape:window-width="1920"
     inkscape:window-height="1136"
     inkscape:window-x="0"
     inkscape:window-y="0"
     inkscape:window-maximized="1"
     inkscape:current-layer="layer1" />
  <defs
     id="defs2" />
  <g
     inkscape:label="Layer 1"
     inkscape:groupmode="layer"
     id="layer1">
    <g
       id="g9255"
       style="stroke:#f3c6c5;stroke-opacity:1"
       transform="translate(6.6868589,1.4866025)">
      <path
         style="fill:none;stroke:#f3c6c5;stroke-width:3.69995;stroke-linecap:butt;stroke-linejoin:miter;stroke-miterlimit:4;stroke-dasharray:none;stroke-opacity:1"
         d="m 24.986119,164.38075 c 0,-4.28347 0,-8.56693 0,-12.85038 0,-16.74162 -0.430823,-33.33635 -0.430823,-50.05823 0,-5.915288 0,-11.830589 0,-17.745887 0,-2.0727 -0.302041,-4.161575 0,-6.218102 0.195257,-1.329463 0.712042,-2.616348 0.881008,-3.94844 0.499854,-3.940732 -0.165564,-8.116361 -0.590566,-12.024797 -0.359062,-3.302038 -1.978863,-6.384558 -1.311832,-9.786888 0.684596,-3.491921 0.419528,-7.173628 0.419528,-10.757429 0,-1.180785 -0.34647,-3.070168 0,-4.245265 0.410291,-1.391549 1.533446,-2.866993 1.689407,-4.332239 0.166059,-1.560105 -0.488146,-3.963408 0,-5.605129 0.989485,-3.327813 0.419528,-7.336574 0.419528,-10.812653"
         id="path859" />
      <path
         style="fill:none;stroke:#f3c6c5;stroke-width:4;stroke-linecap:butt;stroke-linejoin:miter;stroke-miterlimit:4;stroke-dasharray:none;stroke-opacity:1"
         d="m 14.088073,32.135844 c 1.337111,-1.053661 2.697664,-2.078236 4.011332,-3.160982 1.9718,-1.62519 4.670205,-3.94996 5.831439,-6.231604 0.118322,-0.232483 -0.114529,-0.548208 0,-0.782582 0.05597,-0.114529 0.254944,0 0.382416,0 0.137691,-0.273768 0.315367,-0.530856 0.413074,-0.821306 0.366686,-1.090033 -0.504818,-2.751649 0,-3.769298 0.06023,-0.121421 0.27108,0 0.406619,0 0.137692,-0.550765 0.296303,-1.096718 0.413074,-1.652295 0.01357,-0.06458 -0.02153,-0.910478 0,-0.91328 1.101208,-0.143308 2.567595,2.398842 3.073849,3.073849 0.58529,0.780388 2.948299,6.391507 3.062554,6.463959 0.844884,0.535752 3.018026,0.928374 3.520808,1.912079 0.292944,0.573149 0.405582,1.538044 0.714812,2.139593 0.583845,1.135761 1.499004,1.286036 1.499004,2.613983"
         id="path976" />
    </g>
    <g
       id="g41266">
      <path
         style="fill:none;stroke:#f3c6c5;stroke-width:4;stroke-linecap:butt;stroke-linejoin:miter;stroke-miterlimit:4;stroke-dasharray:none;stroke-opacity:1"
         d="m 29.792518,165.62857 c 7.459428,1.73986 15.01379,1.22147 22.593195,1.22147 0.841208,0 1.706888,0.20143 2.523622,0 0.189061,-0.0466 0.239112,-0.32558 0.413073,-0.41307 1.64306,-0.82637 4.428252,0.45766 6.249355,0 1.606709,-0.40379 2.636028,-1.04162 4.225938,-1.26988 1.807313,-0.25947 3.570428,-0.20921 5.399003,-0.41307 1.622433,-0.18089 3.144938,-0.66711 4.748734,-0.87456 1.113231,-0.14399 2.250453,0.1104 3.367518,0 0.876869,-0.0867 1.739427,-0.28291 2.609141,-0.42437 1.335498,-0.33293 2.639788,-0.83595 4.006493,-0.9988 4.696164,-0.55956 9.725758,0 14.48178,0 9.53727,0 19.07454,0 28.61181,0 5.75064,0 11.77781,0.5299 17.50884,0 4.68342,-0.43303 9.39693,-0.56436 14.02514,-1.36185 3.44796,-0.59411 7.29101,0.28316 10.75928,0 1.97277,-0.16106 6.43111,-1.27599 8.66164,-0.53248 4.51764,1.50588 10.88804,0.82615 15.8275,0.82615 15.07612,0 30.15223,0 45.22835,0 3.34257,0 6.90526,0.41155 10.19453,0 2.65192,-0.33181 6.77847,-0.97785 9.56201,-0.42114 1.09268,0.21854 2.19159,0.60502 3.32879,0.83421 1.3408,0.27023 3.17139,0 4.52445,0 3.7311,0 7.46222,0 11.19333,0"
         id="path861" />
      <path
         style="fill:none;stroke:#f3c6c5;stroke-width:4;stroke-linecap:butt;stroke-linejoin:miter;stroke-miterlimit:4;stroke-dasharray:none;stroke-opacity:1"
         d="m 268.3684,148.97815 c 2.85177,1.47668 2.85844,4.12375 4.82297,6.31874 0.54528,0.60924 1.47074,0.74434 2.10248,1.26342 0.23268,0.1912 0.17251,0.62233 0.41307,0.80356 0.17397,0.13108 0.44373,-0.0588 0.6535,0 1.33188,0.37305 2.27904,0.79456 3.09967,1.61518 1.55257,1.55258 4.33726,2.30825 3.7112,2.87054 -0.14819,0.13309 -1.15929,0 -1.34733,0 -0.44143,0 -1.35718,1.38236 -2.02666,2.08796 -0.38727,0.40818 -6.48451,2.21105 -7.49824,2.49781 -2.92028,0.82606 0.0456,-0.0505 -0.82616,0.8213 -0.62124,0.62126 -2.08185,1.05111 -2.87698,1.64746 -1.13412,0.85058 -2.56214,3.1045 -3.65958,3.1045"
         id="path978" />
      <path
         style="fill:none;stroke:#f3c6c5;stroke-width:4.97293;stroke-linecap:butt;stroke-linejoin:miter;stroke-miterlimit:4;stroke-dasharray:none;stroke-opacity:1"
         d="m 55.728496,155.59667 c 0.05054,6.29556 0.07876,12.52576 -0.40709,18.75958 -0.06681,0.85723 0.171644,1.7719 0,2.59136 -0.898573,4.28998 -1.22922,4.69202 -1.22922,9.252"
         id="path980" />
      <path
         style="fill:none;stroke:#f3c6c5;stroke-width:4;stroke-linecap:butt;stroke-linejoin:miter;stroke-miterlimit:4;stroke-dasharray:none;stroke-opacity:1"
         d="m 93.857668,152.67484 c -0.14038,0.79764 -0.361857,1.58519 -0.421142,2.39292 -0.245523,3.34516 0.03071,6.89814 -0.440503,10.21712 -0.09998,0.70421 -0.281614,4.83409 -0.408233,5.23442 -0.259662,0.82097 -0.37919,0.64203 -0.37919,1.31022"
         id="path982" />
      <path
         style="fill:none;stroke:#f3c6c5;stroke-width:5.31994;stroke-linecap:butt;stroke-linejoin:miter;stroke-miterlimit:4;stroke-dasharray:none;stroke-opacity:1"
         d="m 126.87555,152.6246 c 0.44669,12.37771 -0.77654,24.06543 -0.77654,36.29844"
         id="path984" />
      <path
         style="fill:none;stroke:#f3c6c5;stroke-width:4;stroke-linecap:butt;stroke-linejoin:miter;stroke-miterlimit:4;stroke-dasharray:none;stroke-opacity:1"
         d="m 161.18707,152.51187 c 0,0.5868 0.0809,1.17921 0,1.7604 -0.18239,1.3096 -0.98471,2.4686 -1.25536,3.76284 -0.57647,2.75673 -0.84873,5.71606 -0.84873,8.53256 0,1.17671 0.48772,3.96187 0,4.87297 -0.43395,0.81065 -0.37919,1.30955 -0.37919,2.34452"
         id="path986" />
      <path
         style="fill:none;stroke:#f3c6c5;stroke-width:5.15754;stroke-linecap:butt;stroke-linejoin:miter;stroke-miterlimit:4;stroke-dasharray:none;stroke-opacity:1"
         d="m 191.4333,150.63927 c -0.39123,12.83507 -0.80022,25.42706 -0.80022,38.24529"
         id="path988" />
      <path
         style="fill:none;stroke:#f3c6c5;stroke-width:4;stroke-linecap:butt;stroke-linejoin:miter;stroke-miterlimit:4;stroke-dasharray:none;stroke-opacity:1"
         d="m 223.47891,150.86925 c -0.42177,2.89257 0.77658,14.41949 0,15.64033 -1.14831,1.80522 0.0977,3.87329 -0.67286,5.40062 -0.45384,0.89949 -0.35821,-0.1647 -0.35821,0.76644"
         id="path990" />
      <path
         style="fill:none;stroke:#f3c6c5;stroke-width:4.49609;stroke-linecap:butt;stroke-linejoin:miter;stroke-miterlimit:4;stroke-dasharray:none;stroke-opacity:1"
         d="m 252.40924,150.2726 c -0.39251,2.5865 -0.23245,2.58187 -1.19674,4.85115 -3.18354,7.49183 -4.37273,15.3544 -4.37273,24.04477 0,0.87747 -1.11786,6.31251 -0.003,6.31251"
         id="path992" />
    </g>
    <text
       xml:space="preserve"
       style="font-style:normal;font-weight:normal;font-size:21.1667px;line-height:1.25;font-family:sans-serif;fill:#00cbe2;fill-opacity:1;stroke:none;stroke-width:0.264583"
       x="-106.46085"
       y="20.681316"
       id="text2077"
       transform="rotate(-90.350734)"><tspan
         sodipodi:role="line"
         id="tspan2075"
         style="font-style:normal;font-variant:normal;font-weight:bold;font-stretch:normal;font-size:21.1667px;font-family:sans-serif;-inkscape-font-specification:'sans-serif Bold';stroke-width:0.264583;fill:#00cbe2;fill-opacity:1"
         x="-106.46085"
         y="20.681316">fun</tspan></text>
    <text
       xml:space="preserve"
       style="font-style:normal;font-weight:normal;font-size:21.1667px;line-height:1.25;font-family:sans-serif;fill:#00cbe2;fill-opacity:1;stroke:none;stroke-width:0.264583"
       x="17.417097"
       y="205.71246"
       id="text9821"><tspan
         sodipodi:role="line"
         id="tspan9819"
         style="font-style:normal;font-variant:normal;font-weight:bold;font-stretch:normal;font-size:21.1667px;font-family:sans-serif;-inkscape-font-specification:'sans-serif Bold';fill:#00cbe2;fill-opacity:1;stroke-width:0.264583"
         x="17.417097"
         y="205.71246">1980</tspan></text>
    <text
       xml:space="preserve"
       style="font-style:normal;font-weight:normal;font-size:21.1667px;line-height:1.25;font-family:sans-serif;fill:#00cbe2;fill-opacity:1;stroke:none;stroke-width:0.264583"
       x="77.624512"
       y="29.013102"
       id="text9821-36"><tspan
         sodipodi:role="line"
         id="tspan9819-7"
         style="font-style:normal;font-variant:normal;font-weight:bold;font-stretch:normal;font-size:21.1667px;font-family:sans-serif;-inkscape-font-specification:'sans-serif Bold';fill:#4fc535;fill-opacity:1;stroke:#4fc535;stroke-width:0.264583;stroke-opacity:1"
         x="77.624512"
         y="29.013102">what happen</tspan></text>
    <text
       xml:space="preserve"
       style="font-style:normal;font-weight:normal;font-size:21.1667px;line-height:1.25;font-family:sans-serif;fill:#00cbe2;fill-opacity:1;stroke:none;stroke-width:0.264583"
       x="95.371742"
       y="206.41797"
       id="text9821-3"><tspan
         sodipodi:role="line"
         id="tspan9819-6"
         style="font-style:normal;font-variant:normal;font-weight:bold;font-stretch:normal;font-size:21.1667px;font-family:sans-serif;-inkscape-font-specification:'sans-serif Bold';fill:#00cbe2;fill-opacity:1;stroke-width:0.264583"
         x="95.371742"
         y="206.41797">2000</tspan></text>
    <text
       xml:space="preserve"
       style="font-style:normal;font-weight:normal;font-size:21.1667px;line-height:1.25;font-family:sans-serif;fill:#00cbe2;fill-opacity:1;stroke:none;stroke-width:0.264583"
       x="136.83229"
       y="187.54736"
       id="text9821-3-3"><tspan
         sodipodi:role="line"
         id="tspan9819-6-56"
         style="font-style:normal;font-variant:normal;font-weight:bold;font-stretch:normal;font-size:21.1667px;font-family:sans-serif;-inkscape-font-specification:'sans-serif Bold';fill:#00cbe2;fill-opacity:1;stroke-width:0.264583"
         x="136.83229"
         y="187.54736">'10</tspan></text>
    <text
       xml:space="preserve"
       style="font-style:normal;font-weight:normal;font-size:21.1667px;line-height:1.25;font-family:sans-serif;fill:#00cbe2;fill-opacity:1;stroke:none;stroke-width:0.264583"
       x="163.03551"
       y="207.14473"
       id="text9821-3-2"><tspan
         sodipodi:role="line"
         id="tspan9819-6-9"
         style="font-style:normal;font-variant:normal;font-weight:bold;font-stretch:normal;font-size:21.1667px;font-family:sans-serif;-inkscape-font-specification:'sans-serif Bold';fill:#00cbe2;fill-opacity:1;stroke-width:0.264583"
         x="163.03551"
         y="207.14473">2020</tspan></text>
    <text
       xml:space="preserve"
       style="font-style:normal;font-weight:normal;font-size:21.1667px;line-height:1.25;font-family:sans-serif;fill:#00cbe2;fill-opacity:1;stroke:none;stroke-width:0.264583"
       x="200.35802"
       y="187.47206"
       id="text9821-3-1"><tspan
         sodipodi:role="line"
         style="font-style:normal;font-variant:normal;font-weight:bold;font-stretch:normal;font-size:21.1667px;font-family:sans-serif;-inkscape-font-specification:'sans-serif Bold';fill:#00cbe2;fill-opacity:1;stroke-width:0.264583"
         x="200.35802"
         y="187.47206"
         id="tspan30456">'30</tspan></text>
    <text
       xml:space="preserve"
       style="font-style:normal;font-weight:normal;font-size:21.1667px;line-height:1.25;font-family:sans-serif;fill:#00cbe2;fill-opacity:1;stroke:none;stroke-width:0.264583"
       x="234.11404"
       y="205.96388"
       id="text9821-3-70"><tspan
         sodipodi:role="line"
         id="tspan9819-6-93"
         style="font-style:normal;font-variant:normal;font-weight:bold;font-stretch:normal;font-size:21.1667px;font-family:sans-serif;-inkscape-font-specification:'sans-serif Bold';fill:#00cbe2;fill-opacity:1;stroke-width:0.264583"
         x="234.11404"
         y="205.96388">2040</tspan></text>
    <text
       xml:space="preserve"
       style="font-style:normal;font-weight:normal;font-size:21.1667px;line-height:1.25;font-family:sans-serif;fill:#00cbe2;fill-opacity:1;stroke:none;stroke-width:0.264583"
       x="68.604881"
       y="187.41843"
       id="text9821-3-7"><tspan
         sodipodi:role="line"
         id="tspan9819-6-5"
         style="font-style:normal;font-variant:normal;font-weight:bold;font-stretch:normal;font-size:21.1667px;font-family:sans-serif;-inkscape-font-specification:'sans-serif Bold';fill:#00cbe2;fill-opacity:1;stroke-width:0.264583"
         x="68.604881"
         y="187.41843">'90</tspan></text>
    <path
       style="fill:none;stroke:#d8c758;stroke-width:4;stroke-linecap:butt;stroke-linejoin:miter;stroke-opacity:1;stroke-miterlimit:4;stroke-dasharray:none"
       d="m 33.194445,109.79142 c 1.669105,-0.79852 3.423263,-1.17901 5.193239,-1.62206 2.593086,-0.6491 1.543113,-0.32313 3.140612,-0.85563 0.398674,-0.13289 0.719584,-0.46328 1.127622,-0.56381 0.904745,-0.22292 2.563458,-0.10321 3.626239,-0.27861 1.1216,-0.1851 2.595795,0.36455 3.669183,0 0.621581,-0.2111 1.516206,-0.45748 2.267363,-0.56491 0.370499,-0.053 1.848956,0.21361 2.276171,0 0.237725,-0.11886 0.335904,-0.42707 0.563814,-0.56381 0.764119,-0.45847 1.225274,-0.0949 1.973342,-0.28191 1.126386,-0.28159 0.0043,-0.28407 1.127625,-0.84572 0.358849,-0.17942 1.964118,-0.58474 2.528345,-0.85122 0.311949,-0.14733 0.719314,-0.71819 1.030718,-0.79506 0.278324,-0.0687 0.588225,0.0911 0.860034,0 1.193337,-0.40006 3.624434,-2.25122 4.803418,-2.54597 1.065474,-0.266368 1.907211,-0.319245 2.793732,-0.807176 0.148847,-0.08192 0.429575,0.07869 0.580329,0 1.23049,-0.642255 3.00018,-0.905182 4.25282,-1.682626 0.06799,-0.0422 -0.07283,-0.206914 0,-0.240061 0.160028,-0.07283 0.361432,0.05783 0.527471,0 0.635989,-0.221515 1.276419,-0.894406 1.973344,-1.127623 0.777571,-0.260209 1.424258,-0.502756 2.260754,-0.862237 1.443619,-0.620392 3.065216,-0.826976 4.532521,-1.415037 1.533943,-0.614767 3.014131,-1.369729 4.547939,-1.983253 0.53979,-0.215916 0.937212,-0.242662 1.409531,-0.563814 0.227208,-0.154487 0.944864,-0.681453 1.094589,-0.830299 0.232934,-0.231569 0.0299,-0.708131 0.531879,-1.009798 1.062423,-0.638464 2.043623,-1.294183 3.049209,-1.966736 0.07811,-0.05224 0.187938,0 0.281908,0 0.187936,-0.09397 0.395713,-0.155834 0.563811,-0.281905 0.522412,-0.391808 1.101127,-1.109213 1.687031,-1.406226 0.720243,-0.365115 1.752878,-0.588643 2.526144,-0.84572 0.855308,-0.284353 1.502218,-1.032454 2.245338,-1.402924 0.1682,-0.08385 0.38552,0.05943 0.56381,0 0.4352,-0.145063 0.75004,-0.844976 1.12763,-1.127625 1.5326,-1.147254 3.5207,-2.322607 5.09193,-3.109775 0.62773,-0.314489 3.58499,-3.838868 3.85088,-4.370646 0.16944,-0.338881 2.35325,-2.02715 2.74968,-2.425936 0.70609,-0.710274 1.26577,-1.82958 1.92599,-2.489803 1.95425,-1.954242 3.54378,-4.460467 5.8848,-5.633717 0.34408,-0.172445 1.38028,0 1.7575,0 0.43646,0 1.09884,-0.116134 1.49873,0 1.34794,0.391469 2.58258,0.992089 3.8707,1.691436 0.009,0.0048 1.55904,2.071997 1.5637,2.08126 0.1431,0.284528 0.0772,0.717373 0.23566,1.009798 0.29482,0.544203 1.11326,0.654026 1.33685,1.101196 0.0804,0.160872 -0.0825,0.37977 0,0.539586 0.38328,0.742326 1.28288,1.174059 1.64629,1.923788 0.29402,0.606571 0.34307,1.575414 0.5605,2.22772 0.2421,0.726271 0.86475,1.46309 1.12763,2.248641 0.22912,0.684676 -0.32852,1.797375 0,2.433643 0.70318,1.361892 0.671,3.166123 1.36768,4.556747 0.51146,1.020889 -0.30345,3.999229 0,5.213061 0.26181,1.047213 0.62795,2.160588 1.02962,3.059123 0.61291,1.371074 -0.62278,3.092696 1.01421,4.367342 0.74446,0.579684 -1.23224,-0.22769 0.24336,0.460298 0.19109,0.0891 0.3492,-0.08346 0.53959,0 3.1016,1.35971 7.62487,1.251673 10.66948,-0.274195 0.20106,-0.100767 0.55674,0.102952 0.75652,0 0.56707,-0.292232 1.06393,-0.734404 1.60665,-1.028518 0.34055,-0.184557 1.16017,-3.395532 1.27298,-3.481982 0.51732,-0.396428 1.24785,-1.060964 1.85772,-1.669413 0.33406,-0.333282 0.60359,-0.864507 0.80277,-1.26197 0.28684,-0.572397 1.11244,-0.749231 1.50643,-1.314828 0.33529,-0.481319 0.57063,-1.125352 0.93382,-1.638578 0.50994,-0.720622 0.33975,-1.892117 0.96464,-2.515131 0.15052,-0.150059 1.65039,-1.358146 1.78614,-1.065959 0.53516,1.151866 1.2749,-0.0037 1.78945,0.530778 0.13857,0.143949 1.20346,1.317866 1.32364,1.377595 0.1558,0.07744 0.36785,-0.08076 0.52196,0 0.58212,0.305038 0.083,0.155181 0.26429,0.529675 0.20041,0.414062 0.91459,0.59133 1.197,1.125424 0.49579,0.937654 1.13828,1.865368 1.65179,2.770608 0.32315,0.569664 1.17329,0.876898 1.46349,1.462386 0.52376,1.056709 1.38712,1.646899 1.93921,2.663794 0.25352,0.466965 0.9369,0.708673 1.18048,1.18048 0.36717,0.711203 0.96613,1.309683 1.3864,2.037213 0.12644,0.218868 0.11777,0.641326 0.23566,0.877654 0.12653,0.253656 0.50032,0.380881 0.63209,0.632085 0.41636,0.793763 0.79732,1.616019 1.23113,2.40501 0.42805,0.77851 1.34321,1.22605 1.73439,2.01299 0.31815,0.64003 0.70001,2.06204 1.04944,2.59882 0.33845,0.51993 0.74441,0.77287 1.12322,1.12322 0.15683,0.14506 0.13277,0.59953 0.2819,0.75872 0.19143,0.20436 0.56814,0.0926 0.79727,0.48893 0.0856,0.148 -0.0818,0.43989 0,0.59024 0.24165,0.44439 0.51409,0.0598 0.72238,0.50545 0.47076,1.00725 1.23072,2.37535 2.31912,2.88404 0.41118,0.19217 1.34841,0 1.81257,0 1.28248,0 2.8972,-0.0777 3.94338,-0.59905 0.82031,-0.40883 1.35517,-1.40103 2.19248,-1.77293 0.13754,-0.0611 0.31516,0.0637 0.45149,0 0.37388,-0.17482 0.0326,-0.44353 0.42616,-0.66072 0.45669,-0.252 0.9637,-0.39439 1.43596,-0.65301 0.45328,-0.24822 1.28875,0.2088 1.76412,0 0.30396,-0.1335 0.68173,-1.45515 0.96575,-1.71896 0.29329,-0.27243 0.68225,-0.508 1.04063,-0.76644 0.0803,-0.0579 0.41811,0.0757 0.47461,0 0.13702,-0.18346 0.1102,-0.32713 0.26099,-0.47791 0.003,-0.003 0.42909,0.003 0.43277,0 0.10141,-0.0812 -0.06,-0.27457 0,-0.38983 0.16979,-0.32611 1.20196,-1.52425 1.45247,-1.66611 0.42119,-0.23851 0.98772,-0.28635 1.41614,-0.48782 0.69885,-0.32865 2.21117,-2.26109 2.50192,-2.844395 0.38883,-0.780095 1.49141,-0.871871 1.85992,-1.660604 0.3237,-0.692825 -0.1771,-2.135958 0.21473,-2.747481 0.47607,-0.742987 0.21622,0.494546 0.54509,-1.110007 0.0493,-0.240344 -0.19751,-1.4719 0,-1.669412 0.64649,-0.646485 1.35778,-1.400402 1.35778,-2.675906"
       id="path43637" />
    <path
       style="fill:none;stroke:#d8c758;stroke-width:4.00000011;stroke-linecap:butt;stroke-linejoin:miter;stroke-opacity:1;stroke-miterlimit:4;stroke-dasharray:8.00000022, 8.00000022;stroke-dashoffset:0"
       d="m 213.48772,88.735455 c 6.45251,-2.082404 11.26218,-7.386101 15.35067,-12.515088 1.09618,-1.375159 -0.0306,0.312483 1.40953,-1.127625 1.75703,-1.757029 2.90425,-4.096409 4.8838,-5.746041 1.53379,-1.278157 3.36693,-2.200868 4.89702,-3.469868 0.30687,-0.254505 0.50717,-0.635169 0.84572,-0.845717 0.43729,-0.271965 0.99917,-0.298084 1.43486,-0.572621 0.35749,-0.225275 0.57219,-0.625346 0.89637,-0.896374 0.78755,-0.658424 1.7743,-1.073539 2.56138,-1.707954 0.53531,-0.431483 0.92219,-1.02847 1.45909,-1.457984 0.88142,-0.705144 1.81737,-1.355522 2.53715,-2.25525 1.05337,-1.316705 2.51864,-2.995219 3.15162,-4.57767 0.47633,-1.190829 -0.6166,0.07039 0.28191,-1.127625 0.64778,-0.863709 1.32692,-1.675252 1.97334,-2.537153 0.53916,-0.718879 0.0403,-0.538687 0.57262,-1.437061 0.31931,-0.538827 1.04332,-0.869966 1.39191,-1.390811 0.25854,-0.386284 0.34917,-0.95177 0.5506,-1.35227 0.24365,-0.484428 0.69101,-0.508778 0.84572,-1.127622 0.0681,-0.272423 -0.11719,-0.587232 0,-0.842415 0.35344,-0.769649 1.02081,-0.755319 1.02081,-1.559295"
       id="path43641" />
    <g
       id="g1335"
       style="stroke-width:4;stroke-miterlimit:4;stroke-dasharray:none;stroke:#50c537;stroke-opacity:1">
      <path
         style="fill:none;stroke:#50c537;stroke-width:4;stroke-linecap:butt;stroke-linejoin:miter;stroke-opacity:1;stroke-miterlimit:4;stroke-dasharray:none"
         d="m 144.94599,74.705119 c 1.2704,2.284968 1.24714,4.956289 1.77513,7.539889 0.14435,0.706356 0.86506,1.307217 1.12102,1.940306 0.18707,0.462714 0.3506,2.307149 0.99988,2.497514 0.17421,0.05107 0.68523,-1.677961 1.83239,-2.224416 0.96661,-0.460446 0.58622,-1.200885 0.93492,-1.894057 0.4949,-0.983797 1.82856,-1.957729 2.51733,-2.814656 0.54068,-0.672682 0.54011,-1.539875 1.12432,-2.240933 0.97373,-1.168472 2.07734,-2.107301 2.65388,-3.106476"
         id="path1249" />
      <path
         style="fill:none;stroke:#50c537;stroke-width:4;stroke-linecap:butt;stroke-linejoin:miter;stroke-opacity:1;stroke-miterlimit:4;stroke-dasharray:none"
         d="m 149.5589,85.763329 c -0.23621,-3.190089 0.43424,-5.94043 0.58694,-9.119002 0.10288,-2.141656 0.34829,-8.988599 0,-10.730053 -0.0992,-0.49621 -0.46509,-0.913217 -0.56381,-1.40953 -0.43925,-2.208242 0,-5.771147 0,-8.187391 0,-1.876377 -0.41168,-5.767763 0,-7.39453 0.14702,-0.580985 0.46997,-1.114557 0.56821,-1.70575 0.85291,-5.132303 -0.84215,1.350478 0.29072,-3.14832 0.53508,-2.124874 1.12432,-3.944202 1.12432,-6.147977 0,-0.0591 0,0.118197 0,0.177295 0,0.512056 0,1.024112 0,1.536168"
         id="path1251" />
    </g>
  </g>
</svg>
